<?xml version="1.0" encoding="utf-8"?>
<!-- Generator: Adobe Illustrator 25.4.1, SVG Export Plug-In . SVG Version: 6.00 Build 0)  -->
<svg version="1.1" id="Layer_1" xmlns="http://www.w3.org/2000/svg" xmlns:xlink="http://www.w3.org/1999/xlink" x="0px" y="0px"
	 viewBox="0 0 80 80" style="enable-background:new 0 0 80 80;" xml:space="preserve">
<style type="text/css">
	.st0{fill:#0530E2;}
	.st1{fill:#FFFFFF;}
</style>
<circle class="st0" cx="40" cy="40" r="40"/>
<g>
	<path class="st1" d="M28.97,48.16c1.61,0,3.23,0.18,4.66,0.54c1.43,0.36,3.05,0.9,4.48,1.61V30.23c-1.43-0.9-2.87-1.43-4.48-1.79
		c-1.43-0.54-3.05-0.72-4.66-0.72c-1.25,0-2.51,0.18-3.59,0.36c-1.25,0.18-2.51,0.54-3.59,1.08v20.26c1.25-0.36,2.33-0.72,3.59-0.9
		C26.64,48.34,27.72,48.16,28.97,48.16z M42.24,50.31c1.43-0.72,3.05-1.25,4.48-1.61s3.05-0.54,4.66-0.54
		c1.25,0,2.51,0.18,3.59,0.36c1.08,0.18,2.33,0.54,3.59,0.9V29.15c-1.08-0.54-2.33-0.9-3.59-1.08c-1.25-0.18-2.51-0.36-3.59-0.36
		c-1.61,0-3.23,0.18-4.84,0.54c-1.61,0.36-3.05,1.08-4.48,1.79v20.26H42.24z M40.27,56.4c-1.61-1.25-3.41-2.33-5.38-3.05
		s-3.94-1.08-5.92-1.08c-1.43,0-2.87,0.18-4.3,0.54c-1.43,0.36-2.69,0.9-3.94,1.61c-0.72,0.36-1.43,0.36-2.15,0
		c-0.72-0.36-1.08-1.08-1.08-1.79V27.9c0-0.36,0.18-0.72,0.36-1.08c0.36-0.36,0.72-0.54,1.08-0.72c1.61-0.9,3.23-1.43,4.84-1.79
		c1.79-0.54,3.41-0.72,5.2-0.72c1.97,0,3.94,0.18,5.74,0.72c1.97,0.54,3.76,1.25,5.38,2.33c1.79-1.08,3.59-1.79,5.38-2.33
		c1.97-0.54,3.76-0.72,5.74-0.72c1.79,0,3.59,0.18,5.2,0.54c1.79,0.36,3.41,1.08,4.84,1.79c0.36,0.18,0.72,0.36,0.9,0.72
		s0.36,0.72,0.36,1.08v24.74c0,0.72-0.36,1.43-1.08,1.79c-0.72,0.36-1.43,0.36-2.15,0c-1.25-0.72-2.51-1.25-3.94-1.61
		c-1.43-0.36-2.87-0.54-4.3-0.54c-1.97,0-3.94,0.36-5.92,1.08C43.68,54.07,41.88,55.15,40.27,56.4z"/>
</g>
</svg>
